//// ------------------------------------------------------
//// THIS FILE WAS AUTOMATICALLY GENERATED (DO NOT MODIFY)
//// ------------------------------------------------------

Project "Podkrepi.bg" {
  database_type: 'PostgreSQL'
  Note: ''
}

Table Person {
  id String [pk]
  firstName String [not null]
  lastName String [not null]
  email String [unique, not null]
  emailConfirmed Boolean [default: false]
  phone String
  company String
  createdAt DateTime [default: `now()`, not null]
  updatedAt DateTime
  newsletter Boolean [default: false]
  address String
  birthday DateTime
  personalNumber String [unique, note: 'Uniform Civil Number (NCN, EGN)
https://en.wikipedia.org/wiki/National_identification_number#Bulgaria']
  keycloakId String [unique]
  stripeCustomerId String [unique]
  Donation Donation [not null]
  expenses Expense [not null]
  documents Document [not null]
  transfers Transfer [not null]
  campaigns Campaign [not null]
  supporters Supporter [not null]
  benefactors Benefactor [not null]
  withdrawals Withdrawal [not null]
  beneficiaries Beneficiary [not null]
  infoRequests InfoRequest [not null]
  coordinators Coordinator [not null]
  recurringDonations RecurringDonation [not null]

  Note: 'Generic person object'
}

Table Company {
  id String [pk]
  companyName String [not null]
  companyNumber String [unique, not null, note: 'BULSTAT Unified Identification Code (UIC)
https://psc.egov.bg/en/psc-starting-a-business-bulstat']
  legalPersonName String
  countryCode String
  cityId String
  createdAt DateTime [default: `now()`, not null]
  updatedAt DateTime
  beneficiaries Beneficiary [not null]
}

Table Coordinator {
  id String [pk]
  personId String [not null]
  createdAt DateTime [default: `now()`, not null]
  updatedAt DateTime
  person Person [not null]
  beneficiaries Beneficiary [not null]
  campaigns Campaign [not null]

  Note: 'Coordinator is the person who manages the campaign on behalf of the Beneficiary
Alias: Organizer'
}

Table Benefactor {
  id String [pk]
  personId String [not null]
  extCustomerId String [unique, note: 'Payment provider customer id']
  createdAt DateTime [default: `now()`, not null]
  updatedAt DateTime
  person Person [not null]

  Note: 'Benefactor is the person who gives money'
}

Table Beneficiary {
  id String [pk]
  type BeneficiaryType [not null]
  personId String [note: 'Person in need when type is `individual`']
  companyId String [note: 'Company in need when type is `company`']
  coordinatorId String [not null, note: 'Coordinator for this beneficiary']
  countryCode String [not null]
  cityId String [not null]
  description String
  publicData Json
  privateData Json
  createdAt DateTime [default: `now()`, not null]
  updatedAt DateTime
  coordinatorRelation PersonRelation [not null, default: 'none']
  city City [not null]
  coordinator Coordinator [not null]
  person Person
  company Company
  campaigns Campaign [not null]

  Note: 'Beneficiary is the person who receives the benefit'
}

Table CampaignType {
  id String [pk]
  name String [not null]
  slug String [unique, not null]
  description String
  parentId String
  parent CampaignType
  children CampaignType [not null]
  campaigns Campaign [not null]
}

Table Campaign {
  id String [pk]
  state CampaignState [not null, default: 'draft']
  slug String [unique, not null]
  title String [not null]
  essence String [not null]
  coordinatorId String [not null]
  beneficiaryId String [not null]
  campaignTypeId String [not null]
  approvedById String
  description String
  targetAmount Int [default: 0]
  currency Currency [not null, default: 'BGN']
  startDate DateTime
  endDate DateTime
  createdAt DateTime [default: `now()`, not null]
  updatedAt DateTime
  deletedAt DateTime
  approvedBy Person
  coordinator Coordinator [not null]
  beneficiary Beneficiary [not null]
  campaignType CampaignType [not null]
  vaults Vault [not null]
  incomingTransfers Transfer [not null]
  outgoingTransfers Transfer [not null]
  withdrawals Withdrawal [not null]
}

Table InfoRequest {
  id String [pk]
  personId String [not null]
  message String [not null]
  createdAt DateTime [default: `now()`, not null]
  updatedAt DateTime
  deletedAt DateTime
  person Person [not null]
}

Table Supporter {
  id String [pk]
  personId String [not null]
  createdAt DateTime [default: `now()`, not null]
  updatedAt DateTime
  deletedAt DateTime
  comment String
  associationMember Boolean [not null, default: false]
  benefactorCampaign Boolean [not null, default: false]
  benefactorPlatform Boolean [not null, default: false]
  companyOtherText String
  companySponsor Boolean [not null, default: false]
  companyVolunteer Boolean [not null, default: false]
  partnerBussiness Boolean [not null, default: false]
  partnerNpo Boolean [not null, default: false]
  partnerOtherText String
  roleAssociationMember Boolean [not null, default: false]
  roleBenefactor Boolean [not null, default: false]
  roleCompany Boolean [not null, default: false]
  rolePartner Boolean [not null, default: false]
  roleVolunteer Boolean [not null, default: false]
  volunteerBackend Boolean [not null, default: false]
  volunteerDesigner Boolean [not null, default: false]
  volunteerDevOps Boolean [not null, default: false]
  volunteerFinancesAndAccounts Boolean [not null, default: false]
  volunteerFrontend Boolean [not null, default: false]
  volunteerLawyer Boolean [not null, default: false]
  volunteerMarketing Boolean [not null, default: false]
  volunteerProjectManager Boolean [not null, default: false]
  volunteerQa Boolean [not null, default: false]
  volunteerSecurity Boolean [not null, default: false]
  person Person [not null]
}

Table City {
  id String [pk]
  name String [not null]
  postalCode Int [unique, not null]
  countryId String [not null]
  countryCode Country [not null]
  beneficiaries Beneficiary [not null]
}

Table Bootcamp {
  id String [pk]
  firstName String [not null]
  lastName String [not null]
}

Table Country {
  id String [pk]
  name String [not null]
  countryCode String [unique, not null]
  cities City [not null]
}

Table Vault {
  id String [pk]
  currency Currency [not null, default: 'BGN']
  amount Int [not null, default: 0]
  campaignId String [not null]
  createdAt DateTime [default: `now()`, not null]
  updatedAt DateTime
  campaign Campaign [not null]
  expenses Expense [not null]
  sourceTransfers Transfer [not null]
  targetTransfers Transfer [not null]
  donations Donation [not null]
  withdraws Withdrawal [not null]
  recurringDonations RecurringDonation [not null]
}

Table Donation {
  id String [pk]
  type DonationType [not null]
  status DonationStatus [not null, default: 'initial']
  provider PaymentProvider [not null, default: 'none']
  personId String
  currency Currency [not null, default: 'BGN']
  amount Int [not null, default: 0]
  targetVaultId String [not null, note: 'Vault where the funds are going']
  extCustomerId String [not null, note: 'Payment provider attributes']
  extPaymentIntentId String [unique, not null]
  extPaymentMethodId String [not null]
  createdAt DateTime [default: `now()`, not null]
  updatedAt DateTime
  targetVault Vault [not null]
  person Person
}

Table RecurringDonation {
  id String [pk]
  status RecurringDonationStatus [not null]
  vaultId String [not null]
  personId String [not null]
  currency Currency [not null, default: 'BGN']
  amount Int [not null, default: 0]
  extSubscriptionId String [not null, note: 'Payment provider Subscription id']
  extCustomerId String
  createdAt DateTime [default: `now()`, not null]
  updatedAt DateTime
  sourceVault Vault [not null]
  person Person [not null]

  Note: 'Donate on monthly basis'
}

Table Transfer {
  id String [pk]
  status TransferStatus [not null, default: 'initial']
  currency Currency [not null]
  amount Int [not null, default: 0]
  reason String [not null]
  sourceVaultId String [not null, note: 'Source vault']
  sourceCampaignId String [not null]
  targetVaultId String [not null, note: 'Destination vault']
  targetCampaignId String [not null]
  approvedById String
  documentId String
  targetDate DateTime [default: `now()`]
  createdAt DateTime [default: `now()`, not null]
  updatedAt DateTime
  approvedBy Person
  sourceVault Vault [not null]
  sourceCampaign Campaign [not null]
  targetVault Vault [not null]
  targetCampaign Campaign [not null]

  Note: 'Move funds from one vault to another'
}

Table Withdrawal {
  id String [pk]
  status WithdrawStatus [not null, default: 'initial']
  currency Currency [not null]
  amount Int [not null, default: 0]
  reason String [not null]
  sourceVaultId String [not null, note: 'Source vault']
  sourceCampaignId String [not null]
  bankAccountId String [not null, note: 'Destination bank account']
  documentId String
  approvedById String
  targetDate DateTime [default: `now()`]
  createdAt DateTime [default: `now()`, not null]
  updatedAt DateTime
  approvedBy Person
  sourceVault Vault [not null]
  sourceCampaign Campaign [not null]
  bankAccount BankAccount [not null]

  Note: 'Remove funds from a vault to given bank account'
}

Table BankAccount {
  id String [pk]
  status BankAccountStatus [not null, default: 'new']
  ibanNumber String [not null, note: 'IBAN number']
  accountHolderName String [not null, note: 'Name of account holder']
  accountHolderType AccountHolderType [not null, note: 'Company or individual']
  bankName String [note: 'Bank name']
  bankIdCode String [note: 'Bank Identification Code, BIC/SWIFT code']
  fingerprint String
  createdAt DateTime [default: `now()`, not null]
  updatedAt DateTime
  withdraws Withdrawal [not null]
}

Table Expense {
  id String [pk]
  type ExpenseType [not null]
  currency Currency [not null, default: 'BGN']
  amount Int [not null, default: 0]
  description String
  vaultId String [not null]
  documentId String
  approvedById String
  vault Vault [not null]
  approvedBy Person
  document Document

  Note: 'Pay for something from a given vault'
}

Table Document {
  id String [pk]
  type DocumentType [not null]
  name String [not null]
  filename String [not null]
  filetype String
  description String
  sourceUrl String [not null, note: 'Data storage source url']
  ownerId String [not null, note: 'Person who uploaded the document']
  owner Person [not null]
  expenses Expense [not null]
}

Enum BeneficiaryType {
  individual
  company
}

Enum PersonRelation {
  none
  myself
  myorg
  parent
  spouse
  child
  mother
  father
  brother
  sister
  friend
  relative
  partner
  domesticPartner
  manager
  assistant
  colleague
}

Enum CampaignState {
  initial
  draft
  pending_validation
  approved
  rejected
  active
  active_pending_validation
  suspended
  complete
  disabled
  error
  deleted
}

Enum Currency {
  BGN
  EUR
  USD
}

Enum ExpenseType {
  none
  internal
  operating
  administrative
  medical
  services
  groceries
  transport
  accommodation
  shipping
  utility
  rental
  legal
  bank
  advertising
  other
}

Enum PaymentProvider {
  none
  stripe
  paypal
  epay
  bank
  cash
}

Enum DocumentType {
  invoice
  receipt
  medical_record
  other
}

Enum DonationType {
  donation
}

Enum DonationStatus {
  initial
  invalid
  incomplete
  declined
  waiting
  cancelled
  succeeded
  deleted
  refund
  paymentRequested
}

Enum RecurringDonationStatus {
  trialing
  active
  canceled
  incomplete
  incompleteExpired
  pastDue
  unpaid
}

Enum WithdrawStatus {
  initial
  invalid
  incomplete
  declined
  cancelled
  succeeded
}

Enum TransferStatus {
  initial
  invalid
  incomplete
  declined
  cancelled
  succeeded
}

Enum AccountHolderType {
  individual
  company
}

Enum BankAccountStatus {
  new
  validated
  verified
  verification_failed
  errored
}

Ref: Coordinator.personId > Person.id

Ref: Benefactor.personId > Person.id

Ref: Beneficiary.cityId > City.id

Ref: Beneficiary.coordinatorId > Coordinator.id

Ref: Beneficiary.personId > Person.id

Ref: Beneficiary.companyId > Company.id

Ref: CampaignType.parentId - CampaignType.id

Ref: Campaign.approvedById > Person.id

Ref: Campaign.coordinatorId > Coordinator.id

Ref: Campaign.beneficiaryId > Beneficiary.id

Ref: Campaign.campaignTypeId > CampaignType.id [delete: Cascade]

Ref: InfoRequest.personId > Person.id

Ref: Supporter.personId > Person.id

Ref: City.countryId > Country.id

Ref: Vault.campaignId > Campaign.id

Ref: Donation.targetVaultId > Vault.id

Ref: Donation.personId > Person.id [delete: Set Null]

Ref: RecurringDonation.vaultId > Vault.id

Ref: RecurringDonation.personId > Person.id

Ref: Transfer.approvedById > Person.id

Ref: Transfer.sourceVaultId > Vault.id

Ref: Transfer.sourceCampaignId > Campaign.id

Ref: Transfer.targetVaultId > Vault.id

Ref: Transfer.targetCampaignId > Campaign.id

Ref: Withdrawal.approvedById > Person.id

Ref: Withdrawal.sourceVaultId > Vault.id

Ref: Withdrawal.sourceCampaignId > Campaign.id

Ref: Withdrawal.bankAccountId > BankAccount.id

Ref: Expense.vaultId > Vault.id

Ref: Expense.approvedById > Person.id

Ref: Expense.documentId > Document.id

Ref: Document.ownerId > Person.id